<?xml version="1.0" encoding="utf-8"?>
<!-- Generator: Adobe Illustrator 19.2.1, SVG Export Plug-In . SVG Version: 6.00 Build 0)  -->
<svg version="1.1" id="Layer_1" xmlns="http://www.w3.org/2000/svg" xmlns:xlink="http://www.w3.org/1999/xlink" x="0px" y="0px"
	 viewBox="0 0 52.7 36.1" enable-background="new 0 0 52.7 36.1" xml:space="preserve">
<g>
	<defs>
		<rect id="SVGID_1_" width="52.7" height="36.1"/>
	</defs>
	<clipPath id="SVGID_2_">
		<use xlink:href="#SVGID_1_"  overflow="visible"/>
	</clipPath>
	<path clip-path="url(#SVGID_2_)" fill="#ED1C24" d="M8.3,16.1c0-0.3-0.2-0.6-0.4-0.7v-1.1c0.3-0.2,0.5-0.5,0.5-0.8
		c0-0.4-0.3-0.7-0.6-0.9V9.4l0.1,0l20.6,5.8l23.9-9.5L24.2,0L0,7.2l7.2,2v3.4c-0.4,0.1-0.6,0.5-0.6,0.9c0,0.3,0.2,0.6,0.5,0.8v1.1
		c-0.2,0.1-0.3,0.4-0.4,0.7l-1.3,7.2c0,0.1,0,0.3,0.1,0.4c0,0-0.2,0.4,2,0.4c2.2,0,2-0.4,2-0.4c0.1-0.1,0.2-0.3,0.1-0.4L8.3,16.1z
		 M28.8,16.1l8.7-3.5v6.1c0,2.2-5.7,3.9-12.6,3.9c-7,0-12.6-1.8-12.6-3.9v-7.1l16,4.5c0.1,0,0.2,0,0.2,0
		C28.6,16.2,28.7,16.1,28.8,16.1"/>
	<path clip-path="url(#SVGID_2_)" fill="#ED1C24" d="M37.8,30.2c-0.9,0-1.6-0.8-1.6-1.6c0-0.9,0.8-1.6,1.6-1.6
		c0.9,0,1.6,0.8,1.6,1.6C39.4,29.5,38.7,30.2,37.8,30.2 M38.9,30.3l1.4,2.6l-0.5-0.2l-0.2,0.6l-1-2.9C38.7,30.4,38.8,30.4,38.9,30.3
		 M52.7,24.3c0,1-0.3,1.8-0.7,2.3c-0.2,0.2-0.4,0.3-0.6,0.4c-0.1,0-0.1,0-0.2,0.1c-3.8,1-7.7,1.5-11.5,2.3c0.1-0.2,0.1-0.5,0.1-0.7
		c0-1.1-0.8-2-1.9-2.1c-1-3-2.3-3.9-2.3-3.9h0c4.1-1.2,7.8-2.7,12.6-4.3c0.5-0.2,1-0.1,1.5,0.1c0.8,0.3,1.5,1.1,2.1,2.2
		C52.4,21.8,52.7,23.1,52.7,24.3 M35.8,28.5c0,0.6,0.2,1.1,0.6,1.5c-6.2,1.6-12.1,3.9-18.3,5.5c0.1-0.1,0.1-0.1,0.2-0.2
		c0.5-0.5,0.7-1.4,0.8-2.4c0-1.2-0.3-2.5-0.9-3.6c-0.6-1.1-1.4-1.9-2.2-2.3c-0.3-0.1-0.5-0.2-0.8-0.2c5.8-1.4,11.9-2.1,17.7-3.5
		c0,0,0,0,0,0c2,0.6,2.9,2.7,3.3,3.9C36,27.7,35.8,28.1,35.8,28.5 M37.8,30.6l-0.1,5.5l0.5-0.7l0.6,0.3l-0.5-5.2
		C38.2,30.6,38,30.6,37.8,30.6 M18.7,33c0,0.9-0.2,1.6-0.6,2.1c-0.1,0.2-0.3,0.3-0.5,0.3c-0.1,0.1-0.3,0.1-0.4,0.1
		c-0.2,0-0.4,0-0.6-0.1c-0.5-0.2-0.9-0.6-1.2-1.3c-0.3-0.6-0.5-1.4-0.5-2.1c0-0.6,0.1-1,0.4-1.3c0.1-0.1,0.2-0.2,0.3-0.2
		c0.1,0,0.2-0.1,0.3-0.1c0.1,0,0.2,0,0.3,0.1c0.6,0.2,1.1,1.2,1.1,2.1c0,0.4-0.2,0.8-0.4,0.9c0,0-0.1,0-0.1,0c-0.1,0-0.1,0-0.2,0
		c-0.2-0.1-0.3-0.2-0.4-0.5c-0.1-0.2-0.2-0.5-0.2-0.8c0-0.2,0.1-0.4,0.2-0.5c0,0,0,0,0.1,0c0,0,0.1,0,0.1,0c0.2,0.1,0.3,0.4,0.3,0.7
		c0,0.1,0,0.1,0.1,0.1l0.1,0c0,0,0,0,0.1,0c0,0,0.1,0,0.1,0c0,0,0.1-0.1,0.1-0.1c0-0.5-0.3-1-0.6-1.2c-0.1,0-0.2,0-0.2,0
		c-0.1,0-0.1,0-0.2,0c-0.3,0.1-0.4,0.4-0.4,0.9c0,0.8,0.4,1.5,0.9,1.7c0.1,0,0.2,0.1,0.3,0.1c0.1,0,0.2,0,0.3-0.1
		c0.1,0,0.2-0.1,0.3-0.2c0.2-0.2,0.3-0.6,0.3-1.1c0-1.1-0.6-2.2-1.3-2.5C16.1,30,15.9,30,15.8,30c-0.1,0-0.3,0-0.4,0.1
		c-0.3,0.1-0.5,0.4-0.7,0.7l-2.2,0.6c0-1.9,0.7-3.4,1.8-3.9c0.2-0.1,0.5-0.1,0.7-0.1c0.3,0,0.6,0.1,0.9,0.2c0.7,0.3,1.4,1,2,2.1
		C18.4,30.6,18.7,31.8,18.7,33"/>
</g>
</svg>
