<?xml version="1.0" encoding="utf-8"?>
<!-- Generator: Adobe Illustrator 19.2.1, SVG Export Plug-In . SVG Version: 6.00 Build 0)  -->
<svg version="1.1" id="Layer_1" xmlns="http://www.w3.org/2000/svg" xmlns:xlink="http://www.w3.org/1999/xlink" x="0px" y="0px"
	 viewBox="0 0 41.1 34" enable-background="new 0 0 41.1 34" xml:space="preserve">
<g>
	<defs>
		<rect id="SVGID_1_" width="41.1" height="34"/>
	</defs>
	<clipPath id="SVGID_2_">
		<use xlink:href="#SVGID_1_"  overflow="visible"/>
	</clipPath>
	<path clip-path="url(#SVGID_2_)" fill="#ED1C24" d="M34.6,15.3H24l-1.8,4.5L17,6.9l-3.4,8.4H5.9c-0.8-2.4-0.9-4.7-0.3-6.8
		C6.3,6.1,8,4.2,10.4,3.1c0.7-0.3,1.5-0.5,2.2-0.5c3.7,0,6.5,4.1,6.5,4.1l1.1,1.6l1.1-1.6c0,0,2.8-4.1,6.5-4.1
		c0.7,0,1.5,0.2,2.2,0.5c2.4,1.1,4.1,3,4.8,5.4C35.5,10.6,35.4,12.9,34.6,15.3 M32.8,18.9C28.9,25.1,22.3,29.6,20.2,31
		c-2.1-1.4-8.7-5.9-12.6-12.1c-0.4-0.6-0.7-1.2-1-1.8h8.3l2.1-5.3l5.2,13l3-7.7h8.5C33.5,17.7,33.2,18.3,32.8,18.9 M37.3,15.3
		c0.7-2.6,0.8-5.2,0.1-7.5c-1-3.2-3.2-5.7-6.2-7.1C30,0.2,28.9,0,27.8,0c-3.5,0-6.2,2.4-7.6,3.9C18.8,2.4,16.1,0,12.6,0
		c-1.1,0-2.2,0.2-3.3,0.7C6.3,2.1,4,4.6,3.1,7.8c-0.7,2.3-0.7,4.9,0.1,7.5H0v1.9h3.8c0.4,1.1,1,2.1,1.6,3.2
		c5,7.9,13.8,13.1,14.1,13.3l0.7,0.4l0.7-0.4c0.4-0.2,9.1-5.4,14.1-13.3c0.7-1,1.2-2.1,1.6-3.2h4.5v-1.9H37.3z"/>
</g>
</svg>
