<?xml version="1.0" encoding="utf-8"?>
<!-- Generator: Adobe Illustrator 19.2.1, SVG Export Plug-In . SVG Version: 6.00 Build 0)  -->
<svg version="1.1" id="Layer_1" xmlns="http://www.w3.org/2000/svg" xmlns:xlink="http://www.w3.org/1999/xlink" x="0px" y="0px"
	 viewBox="0 0 37.3 32.7" enable-background="new 0 0 37.3 32.7" xml:space="preserve">
<g>
	<defs>
		<rect id="SVGID_1_" width="37.3" height="32.7"/>
	</defs>
	<clipPath id="SVGID_2_">
		<use xlink:href="#SVGID_1_"  overflow="visible"/>
	</clipPath>
	<path clip-path="url(#SVGID_2_)" fill="#ED1C24" d="M28.6,8.7c-1.7-4-5.6-6.6-9.9-6.6c-1.4,0-2.8,0.3-4.1,0.8
		c-2.6,1.1-4.7,3.2-5.8,5.8c-1.1,2.7-1.1,5.7,0,8.3c1.7,4,5.6,6.6,10,6.6c2.9,0,5.7-1.2,7.7-3.3C29.4,17.3,30.3,12.7,28.6,8.7
		 M37.3,4.1v17.8c0,2.2-1.8,4.1-4.1,4.1h-5.4l2.5,6.8l-12.5-6.8H4.1c-2.2,0-4.1-1.8-4.1-4.1V4.1C0,1.8,1.8,0,4.1,0h29.2
		C35.5,0,37.3,1.8,37.3,4.1 M24.1,11.3c0.5,1.2,0.8,2.5,1,3.7l2.9-1.3c0.1-1.3-0.1-2.7-0.5-3.9L24.1,11.3z M25.1,19.9
		c1.4-1.3,2.3-2.9,2.8-4.7l-2.5,1.1C25.5,17.7,25.4,18.9,25.1,19.9 M23.6,10.1l3.5-1.5c-0.6-1.2-1.4-2.2-2.5-3.1l-2.9,1.3
		C22.4,7.8,23.1,8.9,23.6,10.1 M21.5,18l1.4,3.4c1.2-1.1,1.3-3.5,1.2-4.5L21.5,18z M24,15.5c-0.2-1.2-0.5-2.5-1-3.7l-3.5,1.5
		l1.5,3.5L24,15.5z M20.9,5.8l2.5-1.1c-1.6-0.9-3.4-1.4-5.3-1.3C19.3,4.1,20.2,5,20.9,5.8 M22.5,10.6c-0.6-1.2-1.2-2.3-2-3.3l-3,1.3
		l1.5,3.5L22.5,10.6z M17.6,19.6c1,1.1,2.6,2.4,4.1,2.3l-1.4-3.4L17.6,19.6z M19.8,17.3l-1.5-3.5l-3.5,1.5c0.6,1.2,1.2,2.3,2,3.3
		L19.8,17.3z M19.7,6.3c-1-1.1-2.6-2.4-4.1-2.3L17,7.5L19.7,6.3z M16.4,20.1l-2.5,1.1c1.7,1,3.5,1.4,5.3,1.3
		C18,21.8,17,20.9,16.4,20.1 M13.3,10.4c0.2,1.2,0.5,2.5,1,3.7l3.5-1.5l-1.5-3.5L13.3,10.4z M15.8,8l-1.4-3.4
		c-1.3,1.1-1.3,3.5-1.2,4.5L15.8,8z M13.6,15.8l-3.5,1.5c0.6,1.2,1.4,2.2,2.5,3.1l2.9-1.3C14.8,18.1,14.2,17,13.6,15.8 M12.1,10.9
		l-2.9,1.2c-0.1,1.3,0.1,2.7,0.5,3.9l3.5-1.5C12.7,13.4,12.3,12.1,12.1,10.9 M11.9,9.6l-2.5,1.1c0.4-1.8,1.4-3.4,2.8-4.7
		C11.9,7,11.8,8.3,11.9,9.6"/>
</g>
</svg>
