<?xml version="1.0" encoding="utf-8"?>
<!-- Generator: Adobe Illustrator 19.2.1, SVG Export Plug-In . SVG Version: 6.00 Build 0)  -->
<svg version="1.1" id="Layer_1" xmlns="http://www.w3.org/2000/svg" xmlns:xlink="http://www.w3.org/1999/xlink" x="0px" y="0px"
	 viewBox="0 0 38.2 40" enable-background="new 0 0 38.2 40" xml:space="preserve">
<g>
	<defs>
		<rect id="SVGID_1_" width="38.2" height="40"/>
	</defs>
	<clipPath id="SVGID_2_">
		<use xlink:href="#SVGID_1_"  overflow="visible"/>
	</clipPath>
	<path clip-path="url(#SVGID_2_)" fill="#ED1C24" d="M11.5,37.6h15.2V36H11.5V37.6z M10.4,40h17.5v-1.6H10.4V40z M14.5,26.5h4.1v6.1
		h-4.1V26.5z M19.7,26.5h4.1v6.1h-4.1V26.5z M3.9,19.1h3v4.5h-3V19.1z M8.5,19.1h3v4.5h-3V19.1z M13,19.1h3v4.5h-3V19.1z M17.6,19.1
		h3v4.5h-3V19.1z M22.2,19.1h3v4.5h-3V19.1z M26.7,19.1h3v4.5h-3V19.1z M31.3,19.1h3v4.5h-3V19.1z M3.9,25.6h3v4.5h-3V25.6z
		 M8.5,25.6h3v4.5h-3V25.6z M26.7,25.6h3v4.5h-3V25.6z M31.3,25.6h3v4.5h-3V25.6z M0,35.2h11.5v-2.6h1v2.6h13.2v-2.6h1v2.6h11.5
		v-2.6h-1.7V18h0.7v-2h-0.7h-11v-2.5h0.8v-2h-0.8H12.7h-0.8v2h0.8V16h-11H0.9v2h0.7v14.6H0V35.2z M18.2,0.5H20v10.2h-1.8V0.5z
		 M20.8,0.5c1.5-0.5,3.5-0.8,5.5-0.2c1.5,0.5,2.7,1.1,4.5,0v6.1c-1.8,1.2-3.5,1.5-5.3,0.4c-1.6-0.9-3.4-0.8-4.7,0.2V0.5z"/>
</g>
</svg>
