<?xml version="1.0" encoding="utf-8"?>
<!-- Generator: Adobe Illustrator 19.2.1, SVG Export Plug-In . SVG Version: 6.00 Build 0)  -->
<svg version="1.1" id="Layer_1" xmlns="http://www.w3.org/2000/svg" xmlns:xlink="http://www.w3.org/1999/xlink" x="0px" y="0px"
	 viewBox="0 0 46.4 31.3" enable-background="new 0 0 46.4 31.3" xml:space="preserve">
<g>
	<defs>
		<rect id="SVGID_1_" width="46.4" height="31.3"/>
	</defs>
	<clipPath id="SVGID_2_">
		<use xlink:href="#SVGID_1_"  overflow="visible"/>
	</clipPath>
	<path clip-path="url(#SVGID_2_)" fill="#ED1C24" d="M9.8,3.5l2,0l0-1.5h32.6v24.3H22.7v2h22.7h1v-1V1V0h-1H10.8h-1l0,1L9.8,3.5z
		 M27.6,16.1l6.5-7.7L33.7,8l-6.8,7.6l-0.5-0.3L22,19.8l-6.2,1.1L13.9,21l-2.3,5L11,22.3l0.4-0.7l0-0.7c-0.8,0-1,0-1.8,0l0,0.7
		l0.4,0.7L9.4,26l-3-4.9l-3.2,0C1,23,0,29,0,31.3h3.5l0.4-1.9l0.3-0.1v2h13.1l-0.3-3.7l7.7-4l4-6.8L27.6,16.1z M18.5,5.2h3.8v1.4
		h-3.8V5.2z M23.6,5.2h2.2v1.4h-2.2V5.2z M29,5.2h2.2v1.4H29V5.2z M32.7,5.2h9.1v1.4h-9.1V5.2z M41.8,8.5H38v1.4h3.8V8.5z M36.7,8.5
		h-2.2v1.4h2.2V8.5z M31.4,8.5h-2.2v1.4h2.2V8.5z M27.6,8.5h-9.1v1.4h9.1V8.5z M15.3,12c0.1,0,0.1,0.1,0.2,0.1l0.2,0.1l0,0.2
		c0,0.7-0.1,1.2-0.2,1.7c-0.2,0.4-0.4,0.7-0.7,0.9c-0.2,0.8-0.5,1.5-0.8,2.1c-0.4,0.7-1,1.2-1.7,1.5c-0.3,0.1-1.2,0.2-2.1,0.2
		c-0.8,0-1.6-0.1-2-0.2c-0.7-0.3-1.2-0.9-1.6-1.5c-0.3-0.6-0.6-1.3-0.7-2c-0.3-0.2-0.6-0.5-0.7-0.9c-0.2-0.4-0.3-1-0.3-1.7l0-0.2
		L5,12.1c0,0,0.1-0.1,0.1-0.1C4.9,9.4,5,8.4,6,7.3c1.9-1.6,6.3-1.5,8.3-0.1C15.6,8.4,15.7,9.8,15.3,12"/>
</g>
</svg>
