<?xml version="1.0" encoding="utf-8"?>
<!-- Generator: Adobe Illustrator 19.2.1, SVG Export Plug-In . SVG Version: 6.00 Build 0)  -->
<svg version="1.1" id="Layer_1" xmlns="http://www.w3.org/2000/svg" xmlns:xlink="http://www.w3.org/1999/xlink" x="0px" y="0px"
	 viewBox="0 0 57.9 19.5" enable-background="new 0 0 57.9 19.5" xml:space="preserve">
<g>
	<defs>
		<rect id="SVGID_1_" width="57.9" height="19.5"/>
	</defs>
	<clipPath id="SVGID_2_">
		<use xlink:href="#SVGID_1_"  overflow="visible"/>
	</clipPath>
	<path clip-path="url(#SVGID_2_)" fill="#ED1C24" d="M47.1,11.6c1.7,0,3.1,1.4,3.1,3.1c0,1.7-1.4,3.1-3.1,3.1
		c-1.7,0-3.1-1.4-3.1-3.1C44,13,45.4,11.6,47.1,11.6 M47.1,9.9c2.6,0,4.8,2.1,4.8,4.8c0,2.6-2.1,4.8-4.8,4.8c-2.6,0-4.8-2.1-4.8-4.8
		C42.4,12.1,44.5,9.9,47.1,9.9 M11.2,11.6c1.7,0,3.1,1.4,3.1,3.1c0,1.7-1.4,3.1-3.1,3.1c-1.7,0-3.1-1.4-3.1-3.1
		C8.1,13,9.5,11.6,11.2,11.6 M11.2,9.9c2.6,0,4.8,2.1,4.8,4.8c0,2.6-2.1,4.8-4.8,4.8c-2.6,0-4.8-2.1-4.8-4.8
		C6.4,12.1,8.6,9.9,11.2,9.9 M24.5,5.4l0.3-3.9c0-0.2-0.1-0.3-0.3-0.3c-0.1,0-0.2,0-0.3,0c-2.5-0.1-4.1,0-6.6,0.3
		c-1,0.1-1.8,0.4-2.5,0.8c-0.7,0.4-2.9,1.5-3.2,2.2C11.8,5,12,5.3,13,5.5c3.8,0.2,7.1,0.4,10.8,0.6C24.2,6,24.5,5.9,24.5,5.4
		 M26.3,1.5l-0.1,4c0,0.4,0.3,0.6,0.8,0.6c4,0.1,7.9,0.2,12,0.2c0.1,0,0.9,0,1,0c0.6,0.1,1.4-0.9,0.1-1.6c-1.8-0.9-4.4-2.1-6.3-2.6
		c-1.2-0.4-2.7-0.5-3.9-0.6c-1.1-0.1-2.2-0.2-3.3-0.2c0,0,0,0-0.1,0C26.4,1.2,26.3,1.3,26.3,1.5 M51.3,6.7c1.8,0.5,3.7,1.1,5.1,2.4
		c0.6,0.6,1.1,1.6,1.4,2.7c0.3,1.1,0.2,2.2-0.3,3.2L57,16.3c-0.4,1-1.2,1-2.3,1c-0.7,0-1.5,0-2.3,0l-0.1,0c0.4-0.8,0.6-1.6,0.6-2.5
		c0-3.2-2.6-5.7-5.7-5.7c-3.2,0-5.7,2.6-5.7,5.7c0,0.9,0.2,1.8,0.6,2.5H16.3c0.4-0.8,0.6-1.6,0.6-2.5c0-3.2-2.6-5.7-5.7-5.7
		C8,9,5.5,11.5,5.5,14.7c0,0.7,0.1,1.4,0.4,2.1l-2.3-0.3c-0.7-0.1-1.5-0.1-2.2-0.5c-0.5-0.3-0.8-1.1-0.9-1.6
		c-0.2-0.8-0.3-1.6-0.4-2.4C0,11.1-0.1,9.4,0.2,8.6C0.8,7.5,1,7.8,1.4,5.7c0.1-0.7,0.5-1,1.1-1l4.2-0.4c1.1-0.1,1.4-0.2,2.5-0.7
		c2.5-1.4,4.5-2.9,7.3-3.3C21.4-0.3,30.8,0,34.1,1c1.7,0.5,3.6,1.3,5.8,2.4C43.8,5.4,46.9,5.6,51.3,6.7"/>
</g>
</svg>
