<?xml version="1.0" encoding="utf-8"?>
<!-- Generator: Adobe Illustrator 19.2.1, SVG Export Plug-In . SVG Version: 6.00 Build 0)  -->
<svg version="1.1" id="Layer_1" xmlns="http://www.w3.org/2000/svg" xmlns:xlink="http://www.w3.org/1999/xlink" x="0px" y="0px"
	 viewBox="0 0 40.2 29.5" enable-background="new 0 0 40.2 29.5" xml:space="preserve">
<path fill="#ED1C24" d="M10.4,25.6V28H8.2v1.5h14.3V28h-2v-2.4H10.4z M17.1,19.1l1.6-1.7l2.7,2.7l1.6-1.6l-2.7-2.7l1.5-1.6l-7.4-2.2
	L17.1,19.1z M33.1,13.7h4.8v-2.4h-4.8V13.7z M2.6,8.5h25.9v13.6H2.6V8.5z M29.8,6H1.3H0v1.3v16.2v1.3h1.3h28.5h1.3v-1.3V7.2V6H29.8z
	 M33.1,7.7h4.8V5.2h-4.8V7.7z M36.4,19h2.5v1.4h-2.5V19z M36.4,16.7h2.5v1.4h-2.5V16.7z M26.7,0v4h3.9h2.5h5.4h0.6v0.6v3.6v0.6h-0.6
	h-5.4V10h5.4h0.6v0.6v3.6v0.6h-0.6h-5.4v11.8h-6.3v2.8h13.5V0H26.7z"/>
</svg>
