<?xml version="1.0" encoding="utf-8"?>
<!-- Generator: Adobe Illustrator 19.2.1, SVG Export Plug-In . SVG Version: 6.00 Build 0)  -->
<svg version="1.1" id="Layer_1" xmlns="http://www.w3.org/2000/svg" xmlns:xlink="http://www.w3.org/1999/xlink" x="0px" y="0px"
	 viewBox="0 0 41.9 44.6" enable-background="new 0 0 41.9 44.6" xml:space="preserve">
<g>
	<defs>
		<rect id="SVGID_1_" width="41.9" height="44.6"/>
	</defs>
	<clipPath id="SVGID_2_">
		<use xlink:href="#SVGID_1_"  overflow="visible"/>
	</clipPath>
	<path clip-path="url(#SVGID_2_)" fill="#ED1C24" d="M41.9,10.5l-0.1-0.3c-0.2-0.5-0.6-0.7-1-0.6l-2.2,0.8l-4-4
		C34,6,33.3,6,32.9,6.4c-0.4,0.4-0.4,1.1,0,1.5l3.3,3.3l-6.1,2.2c-0.4,0.1-0.6,0.6-0.4,1.1l0.1,0.3c0.2,0.5,0.6,0.7,1,0.6l1.8-0.6
		l4,8.6l-2.5,5.3l-0.7-0.2l-3.8,8.7H2.1c-1.2,0-2.1,1-2.1,2.1v0.2c0,1.2,1,2.1,2.1,2.1h31.5c1.2,0,2.1-1,2.1-2.1v-0.2
		c0-0.9-0.5-1.6-1.2-1.9l2.1-7.7l-0.4-0.2l2.7-5.7c0.1-0.1,0.1-0.2,0.1-0.3c0-0.1,0-0.2-0.1-0.3l-4.2-9l6.7-2.5
		C41.8,11.5,42,11,41.9,10.5"/>
	<path clip-path="url(#SVGID_2_)" fill="#ED1C24" d="M34.7,42.5H1.1C0.5,42.5,0,43,0,43.5c0,0.6,0.5,1.1,1.1,1.1h33.6
		c0.6,0,1.1-0.5,1.1-1.1C35.8,43,35.3,42.5,34.7,42.5"/>
	<path clip-path="url(#SVGID_2_)" fill="#ED1C24" d="M5.8,32.3l9.5-3.1c0.5-0.2,0.8-0.6,1-1.1l2.4-6.7l5.6,4.7l-0.5,8.2
		c-0.1,0.8,0.7,1.6,1.7,1.6c1,0.1,1.8-0.6,1.9-1.4l0.7-10c0-0.3,0-0.5-0.2-0.7c-0.1-0.2-0.2-0.3-0.3-0.4l-5.9-4.9l1.6-7.2l3,1.4
		c0.2,0.1,0.4,0.1,0.7,0.1c0.3,0,0.7-0.2,0.9-0.4l3.3-3.8c0.5-0.5,0.4-1.3-0.1-1.8c-0.5-0.5-1.3-0.4-1.8,0.1l-2.7,3.1l-2.9-1.4
		c-0.2-1.2-1.1-2.2-2.3-2.4c-1.2-0.3-2.3,0.2-3,1L14,7.1c-0.1,0-0.2,0-0.4,0c0,0-0.1,0-0.1,0c0,0,0,0-0.1,0
		c-0.3,0.1-0.5,0.3-0.7,0.6l-2.5,4.4c-0.3,0.6-0.1,1.4,0.5,1.7c0.6,0.3,1.4,0.1,1.7-0.5l2.1-3.7l2.8,0.1l-1.7,7.6c0,0.1,0,0.2,0,0.3
		c0,0,0,0,0,0l-3.2,8.9l-7.8,2.5c-0.8,0.3-1.2,1.2-0.9,2.2C4.1,32,5,32.6,5.8,32.3"/>
	<path clip-path="url(#SVGID_2_)" fill="#ED1C24" d="M23.3,5.3c1.4-0.6,2.1-2.2,1.5-3.6c-0.6-1.4-2.2-2.1-3.6-1.5
		c-1.4,0.6-2.1,2.2-1.5,3.6C20.3,5.2,21.9,5.9,23.3,5.3"/>
</g>
</svg>
