<?xml version="1.0" encoding="utf-8"?>
<!-- Generator: Adobe Illustrator 19.2.1, SVG Export Plug-In . SVG Version: 6.00 Build 0)  -->
<svg version="1.1" id="Layer_1" xmlns="http://www.w3.org/2000/svg" xmlns:xlink="http://www.w3.org/1999/xlink" x="0px" y="0px"
	 viewBox="0 0 37.3 27.2" enable-background="new 0 0 37.3 27.2" xml:space="preserve">
<g>
	<defs>
		<rect id="SVGID_1_" width="37.3" height="27.2"/>
	</defs>
	<clipPath id="SVGID_2_">
		<use xlink:href="#SVGID_1_"  overflow="visible"/>
	</clipPath>
	<path clip-path="url(#SVGID_2_)" fill="#ED1C24" d="M5.7,0C4.2,0,3,1.2,3,2.8v15.5c0,1.3,0.9,2.3,2,2.7l-5,3.9v2.4h37.3v-2.4
		L32,20.9c1.2-0.3,2.2-1.4,2.2-2.7V2.8c0-1.5-1.2-2.8-2.8-2.8H5.7z M16.6,22.8h4l1.4,2.3h-6.5L16.6,22.8z M8.6,12.3h5.5V5.5H8.6
		V12.3z M16.3,7.8h13V6.1h-13V7.8z M16.3,11.8h13v-1.7h-13V11.8z M8.6,15.9h20.8v-1.7H8.6V15.9z M5.6,2.9h25.9v15.7H5.6V2.9z"/>
</g>
</svg>
