<?xml version="1.0" encoding="utf-8"?>
<!-- Generator: Adobe Illustrator 19.2.1, SVG Export Plug-In . SVG Version: 6.00 Build 0)  -->
<svg version="1.1" id="Layer_1" xmlns="http://www.w3.org/2000/svg" xmlns:xlink="http://www.w3.org/1999/xlink" x="0px" y="0px"
	 viewBox="0 0 30.2 34" enable-background="new 0 0 30.2 34" xml:space="preserve">
<g>
	<defs>
		<rect id="SVGID_1_" width="30.2" height="34"/>
	</defs>
	<clipPath id="SVGID_2_">
		<use xlink:href="#SVGID_1_"  overflow="visible"/>
	</clipPath>
	<path clip-path="url(#SVGID_2_)" fill="#ED1C24" d="M20.6,1.5c-0.6,0.1-0.9,0.5-1,1c-0.3-0.9-1.1-1.5-2.1-1.4
		c-0.9,0.2-1.6,1.1-1.5,2.1c-0.2-0.1-0.2-0.1-0.6-0.1c-0.5,0.1-1.2,1.1-1.1,1.6c0.1,0.4,0.1,0.2,0.1,0.3l2.5,0C16.9,5,17,4.9,17,4.7
		c0.4,0.2,0.5,0.3,1.2,0.2c0.6-0.1,1.5-0.9,1.5-1.8C19.9,3.6,20.4,4,21,3.9c0.6-0.1,1.1-0.7,1-1.4C21.9,1.8,21.2,1.4,20.6,1.5
		 M20,2.9C19.7,2,20.9,1.4,21.3,2C20.6,2.2,20.4,2.3,20,2.9 M24,1.9c-0.9,0.1-1.5,1-1.4,1.9c0.2,0.9,1,1.5,1.9,1.4
		c0.9-0.1,1.5-1,1.4-1.9C25.8,2.3,24.9,1.7,24,1.9 M23.1,3.9c-0.3-1.3,1.2-2.1,1.9-1.3C23.9,2.8,23.6,3,23.1,3.9 M16.6,3.3
		c-0.4-1.4,1.3-2.3,2.1-1.4C17.5,2.2,17.1,2.5,16.6,3.3 M12.6,25.7l9,0l-0.9-2c-0.1,0.3-0.2,0.6-0.4,0.8h0c-0.3,0.3-0.7,0.4-1.1,0.4
		c-0.4,0-0.8-0.2-1.1-0.4l0,0c-0.3-0.3-0.4-0.6-0.4-1.1c0,0,0-0.1,0-0.1c-0.3,0.2-0.7,0.3-1.1,0.3c-0.5,0-1-0.2-1.3-0.5l0,0
		c-0.3-0.3-0.5-0.8-0.6-1.3c0-0.5,0.2-1,0.5-1.3l0,0c0.3-0.3,0.8-0.5,1.3-0.5c0.5,0,1,0.2,1.3,0.5l0,0c0.3,0.3,0.5,0.8,0.5,1.3
		c0,0.1,0,0.2,0,0.4c0.2-0.1,0.5-0.2,0.7-0.2c0.3,0,0.6,0.1,0.8,0.2L18.7,19c0,0.3-0.1,0.5-0.3,0.7C18.3,19.8,18,20,17.8,20
		c-0.3,0-0.5-0.1-0.7-0.3v0c-0.2-0.2-0.3-0.4-0.3-0.7c0-0.3,0.1-0.5,0.3-0.7c0.2-0.2,0.4-0.3,0.7-0.3c0.3,0,0.5,0.1,0.7,0.3
		l-0.3-0.8l-2.4,0L12.6,25.7z M20,22.6c-0.2-0.2-0.4-0.3-0.7-0.3c-0.3,0-0.5,0.1-0.7,0.3c-0.2,0.2-0.3,0.4-0.3,0.7
		c0,0.3,0.1,0.5,0.3,0.7c0.2,0.2,0.4,0.3,0.7,0.3c0.3,0,0.5-0.1,0.7-0.3c0.2-0.2,0.3-0.4,0.3-0.7C20.3,23.1,20.1,22.8,20,22.6
		 M18.1,18.6c-0.1-0.1-0.2-0.1-0.3-0.1c-0.1,0-0.3,0.1-0.3,0.1c-0.1,0.1-0.1,0.2-0.1,0.3c0,0.1,0.1,0.3,0.1,0.3
		c0.1,0.1,0.2,0.1,0.3,0.1c0.1,0,0.3-0.1,0.3-0.1c0.1-0.1,0.1-0.2,0.1-0.3C18.2,18.9,18.2,18.7,18.1,18.6L18.1,18.6z M17.1,21.2
		C17,21.1,16.8,21,16.6,21c-0.2,0-0.4,0.1-0.5,0.2C16,21.3,16,21.5,16,21.7c0,0.2,0.1,0.4,0.2,0.5c0.1,0.1,0.3,0.2,0.5,0.2
		c0.2,0,0.4-0.1,0.5-0.2c0.1-0.1,0.2-0.3,0.2-0.5C17.3,21.5,17.2,21.3,17.1,21.2 M20.4,13.7h-1.9v1.9h0c0,0.1,0,0.3,0.1,0.4
		l4.8,10.7l-13,0L15.2,16c0.1-0.1,0.1-0.3,0.1-0.5l0-1.9h-1.9l0,1.7L8.2,27.2c-0.2,0.5,0,1,0.5,1.2c0.1,0.1,0.2,0.1,0.4,0.1v0
		l15.8,0c0.5,0,0.9-0.4,0.9-0.9c0-0.2,0-0.3-0.1-0.4l-5.3-11.8V13.7z M2.9,9.6V1.2C2.9,0.5,3.4,0,4,0c0.6,0,1.2,0.5,1.2,1.2v8.4H2.9
		z M1,30.5h1.9V13.7h2.3v16.8h24.1l0.9,3.5h-30L1,30.5z M0,10.7h25.1v1.8H0V10.7z M13.1,5.6l7.7,0c0.6,0,1.1,0.5,1.1,1.1l0,0.8
		c0,0.6-0.5,1.1-1.1,1.1l-0.4,0v1h-1.9l0-1l-3.3,0l0,1h-1.9l0-1l-0.3,0c-0.6,0-1.1-0.5-1.1-1.1l0-0.8C12,6.1,12.5,5.6,13.1,5.6"/>
</g>
</svg>
