<?xml version="1.0" encoding="utf-8"?>
<!-- Generator: Adobe Illustrator 19.2.1, SVG Export Plug-In . SVG Version: 6.00 Build 0)  -->
<svg version="1.1" id="Layer_1" xmlns="http://www.w3.org/2000/svg" xmlns:xlink="http://www.w3.org/1999/xlink" x="0px" y="0px"
	 viewBox="0 0 41.9 35.1" enable-background="new 0 0 41.9 35.1" xml:space="preserve">
<g>
	<defs>
		<rect id="SVGID_1_" width="41.9" height="35.1"/>
	</defs>
	<clipPath id="SVGID_2_">
		<use xlink:href="#SVGID_1_"  overflow="visible"/>
	</clipPath>
	<path clip-path="url(#SVGID_2_)" fill="#ED1C24" d="M19.9,35.1v-2.9c0-1.3-1.1-2.4-2.4-2.4h-4.1c-1.3,0-2.4,1.1-2.4,2.4v2.9H19.9z
		 M8.9,35.1v-2.9c0-1.3-1.1-2.4-2.4-2.4H2.4c-1.3,0-2.4,1.1-2.4,2.4v2.9H8.9z M30.9,35.1v-2.9c0-1.3-1.1-2.4-2.4-2.4h-4.1
		c-1.3,0-2.4,1.1-2.4,2.4v2.9H30.9z M41.9,35.1v-2.9c0-1.3-1.1-2.4-2.4-2.4h-4.1c-1.3,0-2.4,1.1-2.4,2.4v2.9H41.9z M1.7,0v28.7
		c0.2,0,0.5-0.1,0.7-0.1h1.9v-0.3c0-1.3,0.7-2.5,1.8-3.1c-0.6-2.3-1.3-4.2-2-5.5c0.5-0.1,0.8-0.6,0.8-1.1c0-0.3-0.1-0.6-0.4-0.9
		c3-3.4,5.8-6.5,6.4-14.8c0.2,0.9,1,1.6,2,1.6c1,0,1.9-0.7,2-1.7c0.2,1,1,1.7,2,1.7c1,0,1.9-0.7,2-1.7c0.2,1,1,1.7,2,1.7
		c1,0,1.9-0.7,2-1.7c0.2,1,1,1.7,2,1.7c1,0,1.9-0.7,2-1.7c0.2,1,1,1.7,2,1.7c1,0,1.8-0.7,2-1.7c0.5,8.3,3.3,11.4,6.4,14.8
		c-0.2,0.2-0.4,0.5-0.4,0.9c0,0.5,0.4,1,0.8,1.1c-0.8,1.3-1.5,3.2-2,5.5c1.1,0.6,1.8,1.8,1.8,3.1v0.3h1.9c0.2,0,0.5,0,0.7,0.1V0H1.7
		z M13.4,28.6h1v-0.3c0-1.3-1.1-2.4-2.4-2.4H7.9c-1.3,0-2.4,1.1-2.4,2.4v0.3h1c1.6,0,2.9,1,3.4,2.5C10.4,29.7,11.8,28.6,13.4,28.6
		 M24.4,28.6h1v-0.3c0-1.3-1.1-2.4-2.4-2.4h-4.1c-1.3,0-2.4,1.1-2.4,2.4v0.3h1c1.6,0,2.9,1,3.4,2.5C21.4,29.7,22.8,28.6,24.4,28.6
		 M31.9,31.1c-0.5-1.4-1.8-2.5-3.4-2.5h-1v-0.3c0-1.3,1.1-2.4,2.4-2.4H34c1.3,0,2.4,1.1,2.4,2.4v0.3h-1
		C33.8,28.6,32.4,29.7,31.9,31.1"/>
</g>
</svg>
